<mxfile host="app.diagrams.net" modified="2023-11-16T15:37:02.661Z" agent="Mozilla/5.0 (Windows NT 10.0; Win64; x64) AppleWebKit/537.36 (KHTML, like Gecko) Chrome/119.0.0.0 Safari/537.36" etag="tTXpS1UcfygLQVfxZnFi" version="22.1.2" type="device">
  <diagram name="Page-1" id="2YBvvXClWsGukQMizWep">
    <mxGraphModel dx="1195" dy="622" grid="1" gridSize="10" guides="1" tooltips="1" connect="1" arrows="1" fold="1" page="1" pageScale="1" pageWidth="850" pageHeight="1100" math="0" shadow="0">
      <root>
        <mxCell id="0" />
        <mxCell id="1" parent="0" />
        <mxCell id="hd8bKnqV1HS3eyVvwHsL-1" value="&lt;b&gt;&lt;font style=&quot;font-size: 18px;&quot;&gt;GAT layer&lt;/font&gt;&lt;/b&gt;" style="rounded=1;whiteSpace=wrap;html=1;fillColor=#dae8fc;strokeColor=#6c8ebf;" parent="1" vertex="1">
          <mxGeometry x="160" y="130" width="120" height="60" as="geometry" />
        </mxCell>
        <mxCell id="hd8bKnqV1HS3eyVvwHsL-3" value="&lt;b&gt;&lt;font style=&quot;font-size: 18px;&quot;&gt;GAT layer&lt;/font&gt;&lt;/b&gt;" style="rounded=1;whiteSpace=wrap;html=1;fillColor=#dae8fc;strokeColor=#6c8ebf;" parent="1" vertex="1">
          <mxGeometry x="560" y="130" width="120" height="60" as="geometry" />
        </mxCell>
        <mxCell id="hd8bKnqV1HS3eyVvwHsL-54" style="edgeStyle=orthogonalEdgeStyle;rounded=0;orthogonalLoop=1;jettySize=auto;html=1;" parent="1" source="hd8bKnqV1HS3eyVvwHsL-4" target="hd8bKnqV1HS3eyVvwHsL-1" edge="1">
          <mxGeometry relative="1" as="geometry" />
        </mxCell>
        <mxCell id="hd8bKnqV1HS3eyVvwHsL-4" value="&lt;b&gt;&lt;font style=&quot;font-size: 16px;&quot;&gt;Parent-1 Graph&lt;/font&gt;&lt;/b&gt;" style="rounded=0;whiteSpace=wrap;html=1;fillColor=#ffe6cc;strokeColor=#d79b00;" parent="1" vertex="1">
          <mxGeometry x="150" y="60" width="140" height="30" as="geometry" />
        </mxCell>
        <mxCell id="hd8bKnqV1HS3eyVvwHsL-55" style="edgeStyle=orthogonalEdgeStyle;rounded=0;orthogonalLoop=1;jettySize=auto;html=1;entryX=0.5;entryY=0;entryDx=0;entryDy=0;" parent="1" source="hd8bKnqV1HS3eyVvwHsL-7" target="hd8bKnqV1HS3eyVvwHsL-8" edge="1">
          <mxGeometry relative="1" as="geometry" />
        </mxCell>
        <mxCell id="hd8bKnqV1HS3eyVvwHsL-59" style="edgeStyle=orthogonalEdgeStyle;rounded=0;orthogonalLoop=1;jettySize=auto;html=1;fillColor=#f8cecc;strokeColor=#b85450;entryX=0.5;entryY=0;entryDx=0;entryDy=0;" parent="1" source="hd8bKnqV1HS3eyVvwHsL-8" target="TU-PKMSpi_x8oqM66Lwt-2" edge="1">
          <mxGeometry relative="1" as="geometry" />
        </mxCell>
        <mxCell id="hd8bKnqV1HS3eyVvwHsL-7" value="&lt;span style=&quot;font-size: 16px;&quot;&gt;&lt;b&gt;Full Graph&lt;/b&gt;&lt;/span&gt;" style="rounded=0;whiteSpace=wrap;html=1;fillColor=#ffe6cc;strokeColor=#d79b00;" parent="1" vertex="1">
          <mxGeometry x="360" y="60" width="120" height="30" as="geometry" />
        </mxCell>
        <mxCell id="hd8bKnqV1HS3eyVvwHsL-58" style="edgeStyle=orthogonalEdgeStyle;rounded=0;orthogonalLoop=1;jettySize=auto;html=1;fillColor=#f8cecc;strokeColor=#b85450;entryX=0.5;entryY=0;entryDx=0;entryDy=0;" parent="1" source="hd8bKnqV1HS3eyVvwHsL-8" target="TU-PKMSpi_x8oqM66Lwt-4" edge="1">
          <mxGeometry relative="1" as="geometry" />
        </mxCell>
        <mxCell id="hd8bKnqV1HS3eyVvwHsL-8" value="&lt;b&gt;&lt;font style=&quot;font-size: 18px;&quot;&gt;GAT layer&lt;/font&gt;&lt;/b&gt;" style="rounded=1;whiteSpace=wrap;html=1;fillColor=#f8cecc;strokeColor=#b85450;" parent="1" vertex="1">
          <mxGeometry x="360" y="130" width="120" height="60" as="geometry" />
        </mxCell>
        <mxCell id="hd8bKnqV1HS3eyVvwHsL-61" style="edgeStyle=orthogonalEdgeStyle;rounded=0;orthogonalLoop=1;jettySize=auto;html=1;entryX=0.5;entryY=0;entryDx=0;entryDy=0;" parent="1" source="hd8bKnqV1HS3eyVvwHsL-14" target="hd8bKnqV1HS3eyVvwHsL-18" edge="1">
          <mxGeometry relative="1" as="geometry" />
        </mxCell>
        <mxCell id="hd8bKnqV1HS3eyVvwHsL-14" value="&lt;b&gt;&lt;font style=&quot;font-size: 14px;&quot;&gt;Node Embeddings&lt;/font&gt;&lt;/b&gt;" style="rounded=0;whiteSpace=wrap;html=1;fillColor=#b0e3e6;strokeColor=#0e8088;" parent="1" vertex="1">
          <mxGeometry x="256.5" y="410" width="120" height="40" as="geometry" />
        </mxCell>
        <mxCell id="hd8bKnqV1HS3eyVvwHsL-62" style="edgeStyle=orthogonalEdgeStyle;rounded=0;orthogonalLoop=1;jettySize=auto;html=1;entryX=0.5;entryY=0;entryDx=0;entryDy=0;" parent="1" source="hd8bKnqV1HS3eyVvwHsL-17" target="hd8bKnqV1HS3eyVvwHsL-19" edge="1">
          <mxGeometry relative="1" as="geometry" />
        </mxCell>
        <mxCell id="hd8bKnqV1HS3eyVvwHsL-17" value="&lt;b&gt;&lt;font style=&quot;font-size: 14px;&quot;&gt;Node Embeddings&lt;/font&gt;&lt;/b&gt;" style="rounded=0;whiteSpace=wrap;html=1;fillColor=#b0e3e6;strokeColor=#0e8088;" parent="1" vertex="1">
          <mxGeometry x="476.5" y="410" width="120" height="40" as="geometry" />
        </mxCell>
        <mxCell id="hd8bKnqV1HS3eyVvwHsL-63" style="edgeStyle=orthogonalEdgeStyle;rounded=0;orthogonalLoop=1;jettySize=auto;html=1;entryX=0.5;entryY=0;entryDx=0;entryDy=0;" parent="1" source="hd8bKnqV1HS3eyVvwHsL-18" target="hd8bKnqV1HS3eyVvwHsL-23" edge="1">
          <mxGeometry relative="1" as="geometry" />
        </mxCell>
        <mxCell id="hd8bKnqV1HS3eyVvwHsL-18" value="&lt;b&gt;&lt;font style=&quot;font-size: 14px;&quot;&gt;Route Embeddings&lt;/font&gt;&lt;/b&gt;" style="rounded=0;whiteSpace=wrap;html=1;fillColor=#b0e3e6;strokeColor=#0e8088;" parent="1" vertex="1">
          <mxGeometry x="256.5" y="490" width="120" height="40" as="geometry" />
        </mxCell>
        <mxCell id="hd8bKnqV1HS3eyVvwHsL-64" style="edgeStyle=orthogonalEdgeStyle;rounded=0;orthogonalLoop=1;jettySize=auto;html=1;entryX=0.5;entryY=0;entryDx=0;entryDy=0;" parent="1" source="hd8bKnqV1HS3eyVvwHsL-19" target="hd8bKnqV1HS3eyVvwHsL-23" edge="1">
          <mxGeometry relative="1" as="geometry" />
        </mxCell>
        <mxCell id="hd8bKnqV1HS3eyVvwHsL-19" value="&lt;b&gt;&lt;font style=&quot;font-size: 14px;&quot;&gt;Route Embeddings&lt;/font&gt;&lt;/b&gt;" style="rounded=0;whiteSpace=wrap;html=1;fillColor=#b0e3e6;strokeColor=#0e8088;" parent="1" vertex="1">
          <mxGeometry x="476.5" y="490" width="120" height="40" as="geometry" />
        </mxCell>
        <mxCell id="hd8bKnqV1HS3eyVvwHsL-68" style="edgeStyle=orthogonalEdgeStyle;rounded=0;orthogonalLoop=1;jettySize=auto;html=1;" parent="1" source="hd8bKnqV1HS3eyVvwHsL-23" target="hd8bKnqV1HS3eyVvwHsL-44" edge="1">
          <mxGeometry relative="1" as="geometry" />
        </mxCell>
        <mxCell id="hd8bKnqV1HS3eyVvwHsL-23" value="&lt;b&gt;&lt;font style=&quot;font-size: 14px;&quot;&gt;PtoP Embeddings&lt;/font&gt;&lt;/b&gt;" style="rounded=0;whiteSpace=wrap;html=1;fillColor=#b0e3e6;strokeColor=#0e8088;" parent="1" vertex="1">
          <mxGeometry x="364" y="570" width="120" height="40" as="geometry" />
        </mxCell>
        <mxCell id="hd8bKnqV1HS3eyVvwHsL-69" style="edgeStyle=orthogonalEdgeStyle;rounded=0;orthogonalLoop=1;jettySize=auto;html=1;entryX=0.5;entryY=0;entryDx=0;entryDy=0;" parent="1" source="hd8bKnqV1HS3eyVvwHsL-44" target="hd8bKnqV1HS3eyVvwHsL-53" edge="1">
          <mxGeometry relative="1" as="geometry" />
        </mxCell>
        <mxCell id="hd8bKnqV1HS3eyVvwHsL-44" value="" style="rounded=0;whiteSpace=wrap;html=1;fillColor=#d5e8d4;strokeColor=#82b366;" parent="1" vertex="1">
          <mxGeometry x="254" y="640" width="340" height="100" as="geometry" />
        </mxCell>
        <mxCell id="hd8bKnqV1HS3eyVvwHsL-24" value="" style="ellipse;whiteSpace=wrap;html=1;aspect=fixed;fillColor=#d5e8d4;strokeColor=#82b366;" parent="1" vertex="1">
          <mxGeometry x="276.5" y="650" width="30" height="30" as="geometry" />
        </mxCell>
        <mxCell id="hd8bKnqV1HS3eyVvwHsL-30" value="" style="ellipse;whiteSpace=wrap;html=1;aspect=fixed;fillColor=#d5e8d4;strokeColor=#82b366;" parent="1" vertex="1">
          <mxGeometry x="316.5" y="650" width="30" height="30" as="geometry" />
        </mxCell>
        <mxCell id="hd8bKnqV1HS3eyVvwHsL-31" value="" style="ellipse;whiteSpace=wrap;html=1;aspect=fixed;fillColor=#d5e8d4;strokeColor=#82b366;" parent="1" vertex="1">
          <mxGeometry x="356.5" y="650" width="30" height="30" as="geometry" />
        </mxCell>
        <mxCell id="hd8bKnqV1HS3eyVvwHsL-32" value="" style="ellipse;whiteSpace=wrap;html=1;aspect=fixed;fillColor=#d5e8d4;strokeColor=#82b366;" parent="1" vertex="1">
          <mxGeometry x="396.5" y="650" width="30" height="30" as="geometry" />
        </mxCell>
        <mxCell id="hd8bKnqV1HS3eyVvwHsL-33" value="" style="ellipse;whiteSpace=wrap;html=1;aspect=fixed;fillColor=#60a917;strokeColor=#2D7600;fontColor=#ffffff;" parent="1" vertex="1">
          <mxGeometry x="436.5" y="650" width="30" height="30" as="geometry" />
        </mxCell>
        <mxCell id="hd8bKnqV1HS3eyVvwHsL-34" value="" style="ellipse;whiteSpace=wrap;html=1;aspect=fixed;fillColor=#60a917;strokeColor=#2D7600;fontColor=#ffffff;" parent="1" vertex="1">
          <mxGeometry x="476.5" y="650" width="30" height="30" as="geometry" />
        </mxCell>
        <mxCell id="hd8bKnqV1HS3eyVvwHsL-36" value="" style="ellipse;whiteSpace=wrap;html=1;aspect=fixed;fillColor=#60a917;strokeColor=#2D7600;fontColor=#ffffff;" parent="1" vertex="1">
          <mxGeometry x="516.5" y="650" width="30" height="30" as="geometry" />
        </mxCell>
        <mxCell id="hd8bKnqV1HS3eyVvwHsL-37" value="" style="ellipse;whiteSpace=wrap;html=1;aspect=fixed;fillColor=#60a917;strokeColor=#2D7600;fontColor=#ffffff;" parent="1" vertex="1">
          <mxGeometry x="556.5" y="650" width="30" height="30" as="geometry" />
        </mxCell>
        <mxCell id="hd8bKnqV1HS3eyVvwHsL-39" value="" style="ellipse;whiteSpace=wrap;html=1;aspect=fixed;fillColor=#60a917;strokeColor=#2D7600;fontColor=#ffffff;" parent="1" vertex="1">
          <mxGeometry x="351.5" y="700" width="30" height="30" as="geometry" />
        </mxCell>
        <mxCell id="hd8bKnqV1HS3eyVvwHsL-40" value="" style="ellipse;whiteSpace=wrap;html=1;aspect=fixed;fillColor=#60a917;strokeColor=#2D7600;fontColor=#ffffff;" parent="1" vertex="1">
          <mxGeometry x="391.5" y="700" width="30" height="30" as="geometry" />
        </mxCell>
        <mxCell id="hd8bKnqV1HS3eyVvwHsL-41" value="" style="ellipse;whiteSpace=wrap;html=1;aspect=fixed;fillColor=#60a917;strokeColor=#2D7600;fontColor=#ffffff;" parent="1" vertex="1">
          <mxGeometry x="431.5" y="700" width="30" height="30" as="geometry" />
        </mxCell>
        <mxCell id="hd8bKnqV1HS3eyVvwHsL-42" value="" style="ellipse;whiteSpace=wrap;html=1;aspect=fixed;fillColor=#60a917;strokeColor=#2D7600;fontColor=#ffffff;" parent="1" vertex="1">
          <mxGeometry x="471.5" y="700" width="30" height="30" as="geometry" />
        </mxCell>
        <mxCell id="hd8bKnqV1HS3eyVvwHsL-45" value="" style="ellipse;whiteSpace=wrap;html=1;aspect=fixed;fillColor=#d5e8d4;strokeColor=#82b366;" parent="1" vertex="1">
          <mxGeometry x="276.5" y="650" width="30" height="30" as="geometry" />
        </mxCell>
        <mxCell id="hd8bKnqV1HS3eyVvwHsL-46" value="" style="ellipse;whiteSpace=wrap;html=1;aspect=fixed;fillColor=#d5e8d4;strokeColor=#82b366;" parent="1" vertex="1">
          <mxGeometry x="316.5" y="650" width="30" height="30" as="geometry" />
        </mxCell>
        <mxCell id="hd8bKnqV1HS3eyVvwHsL-47" value="" style="ellipse;whiteSpace=wrap;html=1;aspect=fixed;fillColor=#d5e8d4;strokeColor=#82b366;" parent="1" vertex="1">
          <mxGeometry x="356.5" y="650" width="30" height="30" as="geometry" />
        </mxCell>
        <mxCell id="hd8bKnqV1HS3eyVvwHsL-48" value="" style="ellipse;whiteSpace=wrap;html=1;aspect=fixed;fillColor=#d5e8d4;strokeColor=#82b366;" parent="1" vertex="1">
          <mxGeometry x="396.5" y="650" width="30" height="30" as="geometry" />
        </mxCell>
        <mxCell id="hd8bKnqV1HS3eyVvwHsL-49" value="" style="ellipse;whiteSpace=wrap;html=1;aspect=fixed;fillColor=#60a917;strokeColor=#2D7600;fontColor=#ffffff;" parent="1" vertex="1">
          <mxGeometry x="276.5" y="650" width="30" height="30" as="geometry" />
        </mxCell>
        <mxCell id="hd8bKnqV1HS3eyVvwHsL-50" value="" style="ellipse;whiteSpace=wrap;html=1;aspect=fixed;fillColor=#60a917;strokeColor=#2D7600;fontColor=#ffffff;" parent="1" vertex="1">
          <mxGeometry x="316.5" y="650" width="30" height="30" as="geometry" />
        </mxCell>
        <mxCell id="hd8bKnqV1HS3eyVvwHsL-51" value="" style="ellipse;whiteSpace=wrap;html=1;aspect=fixed;fillColor=#60a917;strokeColor=#2D7600;fontColor=#ffffff;" parent="1" vertex="1">
          <mxGeometry x="356.5" y="650" width="30" height="30" as="geometry" />
        </mxCell>
        <mxCell id="hd8bKnqV1HS3eyVvwHsL-52" value="" style="ellipse;whiteSpace=wrap;html=1;aspect=fixed;fillColor=#60a917;strokeColor=#2D7600;fontColor=#ffffff;" parent="1" vertex="1">
          <mxGeometry x="396.5" y="650" width="30" height="30" as="geometry" />
        </mxCell>
        <mxCell id="hd8bKnqV1HS3eyVvwHsL-53" value="&lt;b&gt;&lt;font style=&quot;font-size: 17px;&quot;&gt;Prediction&lt;/font&gt;&lt;/b&gt;" style="ellipse;whiteSpace=wrap;html=1;fillColor=#fff2cc;strokeColor=#d6b656;" parent="1" vertex="1">
          <mxGeometry x="346.5" y="780" width="155" height="40" as="geometry" />
        </mxCell>
        <mxCell id="hd8bKnqV1HS3eyVvwHsL-60" style="edgeStyle=orthogonalEdgeStyle;rounded=0;orthogonalLoop=1;jettySize=auto;html=1;fillColor=#0050ef;strokeColor=#000000;" parent="1" source="TU-PKMSpi_x8oqM66Lwt-2" target="hd8bKnqV1HS3eyVvwHsL-14" edge="1">
          <mxGeometry relative="1" as="geometry" />
        </mxCell>
        <mxCell id="hd8bKnqV1HS3eyVvwHsL-57" style="edgeStyle=orthogonalEdgeStyle;rounded=0;orthogonalLoop=1;jettySize=auto;html=1;entryX=0.5;entryY=0;entryDx=0;entryDy=0;fillColor=#0050ef;strokeColor=#000000;" parent="1" source="TU-PKMSpi_x8oqM66Lwt-4" target="hd8bKnqV1HS3eyVvwHsL-17" edge="1">
          <mxGeometry relative="1" as="geometry" />
        </mxCell>
        <mxCell id="hd8bKnqV1HS3eyVvwHsL-72" style="edgeStyle=orthogonalEdgeStyle;rounded=0;orthogonalLoop=1;jettySize=auto;html=1;entryX=0.5;entryY=0;entryDx=0;entryDy=0;" parent="1" source="hd8bKnqV1HS3eyVvwHsL-70" target="hd8bKnqV1HS3eyVvwHsL-3" edge="1">
          <mxGeometry relative="1" as="geometry" />
        </mxCell>
        <mxCell id="hd8bKnqV1HS3eyVvwHsL-70" value="&lt;b&gt;&lt;font style=&quot;font-size: 16px;&quot;&gt;Parent-2 Graph&lt;/font&gt;&lt;/b&gt;" style="rounded=0;whiteSpace=wrap;html=1;fillColor=#ffe6cc;strokeColor=#d79b00;" parent="1" vertex="1">
          <mxGeometry x="550" y="60" width="140" height="30" as="geometry" />
        </mxCell>
        <mxCell id="TU-PKMSpi_x8oqM66Lwt-3" value="" style="edgeStyle=orthogonalEdgeStyle;rounded=0;orthogonalLoop=1;jettySize=auto;html=1;fillColor=#0050ef;strokeColor=#001DBC;" edge="1" parent="1" source="hd8bKnqV1HS3eyVvwHsL-1" target="TU-PKMSpi_x8oqM66Lwt-2">
          <mxGeometry relative="1" as="geometry">
            <mxPoint x="220" y="190" as="sourcePoint" />
            <mxPoint x="317" y="410" as="targetPoint" />
          </mxGeometry>
        </mxCell>
        <mxCell id="TU-PKMSpi_x8oqM66Lwt-2" value="&lt;b&gt;&lt;font style=&quot;font-size: 18px;&quot;&gt;GAT layer&lt;/font&gt;&lt;/b&gt;" style="rounded=1;whiteSpace=wrap;html=1;fillColor=#e1d5e7;strokeColor=#9673a6;" vertex="1" parent="1">
          <mxGeometry x="256.5" y="290" width="120" height="60" as="geometry" />
        </mxCell>
        <mxCell id="TU-PKMSpi_x8oqM66Lwt-5" value="" style="edgeStyle=orthogonalEdgeStyle;rounded=0;orthogonalLoop=1;jettySize=auto;html=1;entryX=0.5;entryY=0;entryDx=0;entryDy=0;fillColor=#0050ef;strokeColor=#001DBC;" edge="1" parent="1" source="hd8bKnqV1HS3eyVvwHsL-3" target="TU-PKMSpi_x8oqM66Lwt-4">
          <mxGeometry relative="1" as="geometry">
            <mxPoint x="620" y="190" as="sourcePoint" />
            <mxPoint x="537" y="410" as="targetPoint" />
          </mxGeometry>
        </mxCell>
        <mxCell id="TU-PKMSpi_x8oqM66Lwt-4" value="&lt;b&gt;&lt;font style=&quot;font-size: 18px;&quot;&gt;GAT layer&lt;/font&gt;&lt;/b&gt;" style="rounded=1;whiteSpace=wrap;html=1;fillColor=#e1d5e7;strokeColor=#9673a6;" vertex="1" parent="1">
          <mxGeometry x="476.5" y="290" width="120" height="60" as="geometry" />
        </mxCell>
      </root>
    </mxGraphModel>
  </diagram>
</mxfile>
